<?xml version="1.0" encoding="UTF-8"?>
<!DOCTYPE svg PUBLIC "-//W3C//DTD SVG 1.1//EN" "http://www.w3.org/Graphics/SVG/1.1/DTD/svg11.dtd">
<svg xmlns="http://www.w3.org/2000/svg" version="1.1" width="1000px" height="300px" style="shape-rendering:geometricPrecision; text-rendering:geometricPrecision; image-rendering:optimizeQuality; fill-rule:evenodd; clip-rule:evenodd" xmlns:xlink="http://www.w3.org/1999/xlink">
<g><path style="opacity:0.987" fill="#ff851a" d="M 884.5,-0.5 C 894.833,-0.5 905.167,-0.5 915.5,-0.5C 931.835,2.66214 942.335,12.3288 947,28.5C 948.163,35.4527 948.663,42.4527 948.5,49.5C 962.171,49.3334 975.837,49.5001 989.5,50C 992.583,50.786 994.749,52.6193 996,55.5C 995.796,118.172 994.963,180.839 993.5,243.5C 930.859,243.501 930.859,244.167 993.5,245.5C 995.202,259.652 996.869,273.819 998.5,288C 998.414,293.242 996.081,297.076 991.5,299.5C 983.5,299.5 975.5,299.5 967.5,299.5C 945.168,298.636 922.668,297.969 900,297.5C 877.665,297.966 855.499,298.632 833.5,299.5C 825.5,299.5 817.5,299.5 809.5,299.5C 804.864,297.675 802.197,294.175 801.5,289C 803.536,274.546 805.203,260.046 806.5,245.5C 873.146,244.167 873.146,243.501 806.5,243.5C 805.592,181.162 804.759,118.829 804,56.5C 805.587,53.2441 808.087,51.0774 811.5,50C 825.163,49.5001 838.829,49.3334 852.5,49.5C 849.351,31.6714 854.685,17.1714 868.5,6C 873.607,2.93542 878.94,0.768757 884.5,-0.5 Z M 883.5,14.5 C 894.505,14.3335 905.505,14.5002 916.5,15C 925.07,17.9038 930.57,23.7372 933,32.5C 933.499,38.1569 933.666,43.8236 933.5,49.5C 911.5,49.5 889.5,49.5 867.5,49.5C 866.085,48.7259 865.918,43.7259 867,34.5C 868.982,24.8388 874.482,18.1722 883.5,14.5 Z M 857.5,71.5 C 864.315,72.0931 865.648,74.9265 861.5,80C 856.504,80.6643 854.67,78.4977 856,73.5C 856.717,72.9558 857.217,72.2891 857.5,71.5 Z M 937.5,71.5 C 943.845,71.542 945.512,74.2087 942.5,79.5C 938.608,81.0513 936.274,79.718 935.5,75.5C 935.752,73.9271 936.418,72.5938 937.5,71.5 Z"/></g>
<g><path style="opacity:0.96" fill="#101010" d="M 0.5,40.5 C 44.8333,40.5 89.1667,40.5 133.5,40.5C 133.5,50.5 133.5,60.5 133.5,70.5C 99.8333,70.5 66.1667,70.5 32.5,70.5C 32.5,90.5 32.5,110.5 32.5,130.5C 61.8333,130.5 91.1667,130.5 120.5,130.5C 120.5,140.167 120.5,149.833 120.5,159.5C 91.1667,159.5 61.8333,159.5 32.5,159.5C 32.5,181.5 32.5,203.5 32.5,225.5C 66.8333,225.5 101.167,225.5 135.5,225.5C 135.5,235.167 135.5,244.833 135.5,254.5C 90.5,254.5 45.5,254.5 0.5,254.5C 0.5,183.167 0.5,111.833 0.5,40.5 Z"/></g>
<g><path style="opacity:0.983" fill="#111111" d="M 704.5,44.5 C 712.833,44.5 721.167,44.5 729.5,44.5C 729.5,59.8333 729.5,75.1667 729.5,90.5C 736.833,90.5 744.167,90.5 751.5,90.5C 751.5,99.1667 751.5,107.833 751.5,116.5C 744.167,116.5 736.833,116.5 729.5,116.5C 729.333,152.168 729.5,187.835 730,223.5C 731.167,227.333 733.667,229.833 737.5,231C 742.155,231.499 746.821,231.666 751.5,231.5C 751.666,238.841 751.5,246.174 751,253.5C 741.872,257.198 732.372,258.364 722.5,257C 712.124,254.292 705.29,247.792 702,237.5C 701.333,234.833 700.667,232.167 700,229.5C 699.5,191.835 699.333,154.168 699.5,116.5C 694.5,116.5 689.5,116.5 684.5,116.5C 684.5,107.833 684.5,99.1667 684.5,90.5C 689.5,90.5 694.5,90.5 699.5,90.5C 701.002,75.1492 702.669,59.8159 704.5,44.5 Z"/></g>
<g><path style="opacity:0.97" fill="#111111" d="M 313.5,86.5 C 331.843,84.9999 345.176,92.3332 353.5,108.5C 368.299,88.4614 387.632,82.2948 411.5,90C 422.14,95.6592 428.64,104.493 431,116.5C 432.023,122.793 432.689,129.126 433,135.5C 433.5,175.165 433.667,214.832 433.5,254.5C 423.167,254.5 412.833,254.5 402.5,254.5C 402.667,213.165 402.5,171.832 402,130.5C 398.74,116.784 390.24,111.618 376.5,115C 366.932,119.938 361.098,127.771 359,138.5C 357.537,177.132 357.037,215.799 357.5,254.5C 347.5,254.5 337.5,254.5 327.5,254.5C 327.667,213.832 327.5,173.165 327,132.5C 323.89,116.068 314.39,110.568 298.5,116C 289.91,122.335 284.743,130.835 283,141.5C 281.551,179.139 281.051,216.806 281.5,254.5C 271.5,254.5 261.5,254.5 251.5,254.5C 251.5,199.833 251.5,145.167 251.5,90.5C 259.528,90.169 267.528,90.5023 275.5,91.5C 276.811,97.556 278.311,103.556 280,109.5C 287.786,96.7061 298.953,89.0395 313.5,86.5 Z"/></g>
<g><path style="opacity:0.969" fill="#101010" d="M 511.5,86.5 C 526.895,85.2093 541.229,88.376 554.5,96C 563.747,103.659 568.913,113.492 570,125.5C 570.333,158.5 570.667,191.5 571,224.5C 571.69,227.196 573.19,229.363 575.5,231C 579.821,231.499 584.154,231.666 588.5,231.5C 588.831,238.863 588.497,246.197 587.5,253.5C 573.228,259.912 560.061,258.246 548,248.5C 545.473,244.779 543.473,240.779 542,236.5C 526.301,257.138 506.135,262.972 481.5,254C 471.177,249.677 464.344,242.177 461,231.5C 451.287,189.048 467.787,164.548 510.5,158C 520.476,156.835 530.476,156.002 540.5,155.5C 540.666,147.16 540.5,138.827 540,130.5C 537.954,118.133 530.621,112.133 518,112.5C 501.665,114.01 494.165,123.01 495.5,139.5C 485.5,139.5 475.5,139.5 465.5,139.5C 462.683,117.628 471.017,101.794 490.5,92C 497.44,89.4526 504.44,87.6193 511.5,86.5 Z M 537.5,180.5 C 538.5,180.5 539.5,180.5 540.5,180.5C 541.778,193.022 539.945,205.022 535,216.5C 525.384,231.262 512.55,235.095 496.5,228C 491.629,223.063 489.295,217.063 489.5,210C 489.781,197.054 496.114,188.721 508.5,185C 518.174,182.596 527.841,181.096 537.5,180.5 Z"/></g>
<g><path style="opacity:0.968" fill="#101010" d="M 662.5,86.5 C 668.274,86.2671 673.774,87.2671 679,89.5C 679.5,99.4944 679.666,109.494 679.5,119.5C 666.31,117.359 655.144,121.026 646,130.5C 642.627,135.645 640.627,141.311 640,147.5C 639.5,183.165 639.333,218.832 639.5,254.5C 629.5,254.5 619.5,254.5 609.5,254.5C 609.5,199.833 609.5,145.167 609.5,90.5C 617.5,90.5 625.5,90.5 633.5,90.5C 634.187,97.9555 635.52,105.289 637.5,112.5C 641.215,99.1224 649.548,90.4558 662.5,86.5 Z"/></g>
<g><path style="opacity:0.972" fill="#111111" d="M 152.5,153.5 C 178.5,153.5 204.5,153.5 230.5,153.5C 230.5,164.5 230.5,175.5 230.5,186.5C 204.5,186.5 178.5,186.5 152.5,186.5C 152.5,175.5 152.5,164.5 152.5,153.5 Z"/></g>
</svg>
